<svg width="148" height="148" viewBox="0 0 148 148" fill="none" xmlns="http://www.w3.org/2000/svg">
    <g clip-path="url(#clip0)">
        <path d="M126.852 19.6887C124.917 19.6887 123.348 21.2574 123.348 23.1927C123.348 25.128 124.917 26.6967 126.852 26.6967C128.787 26.6967 130.356 25.128 130.356 23.1927C130.356 21.2574 128.787 19.6887 126.852 19.6887Z" fill="black"/>
        <path d="M114.88 26.6967C116.815 26.6967 118.384 25.1279 118.384 23.1927C118.384 21.2575 116.815 19.6887 114.88 19.6887C112.945 19.6887 111.376 21.2575 111.376 23.1927C111.376 25.1279 112.945 26.6967 114.88 26.6967Z" fill="black"/>
        <path d="M102.908 26.6967C104.843 26.6967 106.412 25.1279 106.412 23.1927C106.412 21.2575 104.843 19.6887 102.908 19.6887C100.973 19.6887 99.4041 21.2575 99.4041 23.1927C99.4041 25.1279 100.973 26.6967 102.908 26.6967Z" fill="black"/>
        <path d="M148 17.0608C148 12.6453 144.408 9.05286 139.992 9.05286H8.0079C3.59247 9.05257 0 12.645 0 17.0608V112.059C0 113.256 0.970383 114.227 2.16797 114.227C3.36555 114.227 4.33594 113.256 4.33594 112.059V37.3333H143.664V48.7946C143.664 49.9919 144.634 50.9626 145.832 50.9626C147.03 50.9626 148 49.9919 148 48.7946V17.0608ZM4.33594 32.9971V17.0608C4.33594 15.0362 5.98302 13.3888 8.0079 13.3888H139.992C142.017 13.3888 143.664 15.0362 143.664 17.0608V32.9973H4.33594V32.9971Z" fill="black"/>
        <path d="M145.832 56.7435C144.634 56.7435 143.664 57.7142 143.664 58.9115V130.94C143.664 132.964 142.017 134.611 139.993 134.611H8.00703C5.98273 134.611 4.33594 132.964 4.33594 130.94V122.176C4.33594 120.978 3.36555 120.008 2.16797 120.008C0.970383 120.008 0 120.978 0 122.176V130.94C0 135.355 3.59189 138.947 8.00703 138.947H139.993C144.408 138.947 148 135.355 148 130.94V58.9115C148 57.7142 147.03 56.7435 145.832 56.7435Z" fill="black"/>
        <path d="M75.8414 83.8056H49.1812C47.9836 83.8056 47.0132 84.7763 47.0132 85.9736V127.437C47.0132 128.634 47.9836 129.605 49.1812 129.605H123.933C125.13 129.605 126.101 128.634 126.101 127.437V102C133.518 100.943 139.24 94.553 139.24 86.8486C139.24 78.4077 132.373 71.5404 123.932 71.5404C116.533 71.5404 110.344 76.8175 108.929 83.8053H85.9586C84.761 83.8053 83.7906 84.776 83.7906 85.9733C83.7906 87.1706 84.761 88.1413 85.9586 88.1413H108.683C109.281 95.2583 114.767 101.003 121.765 102V125.268H51.3491V88.1413H75.8414C77.039 88.1413 78.0094 87.1706 78.0094 85.9733C78.0094 84.776 77.039 83.8056 75.8414 83.8056ZM112.96 86.8489C112.96 80.7988 117.882 75.8766 123.932 75.8766C129.982 75.8766 134.904 80.7988 134.904 86.8489C134.904 92.8932 129.991 97.811 123.949 97.8205C123.944 97.8205 123.938 97.8197 123.933 97.8197C123.927 97.8197 123.921 97.8205 123.916 97.8205C117.873 97.8113 112.96 92.8932 112.96 86.8489Z" fill="black"/>
        <path d="M69.6848 95.6427C69.272 94.6394 68.3051 93.9913 67.2203 93.9913C67.2194 93.9913 67.2188 93.9913 67.218 93.9913C66.1322 93.9921 65.1648 94.6417 64.7537 95.6467C64.7471 95.6632 64.7401 95.68 64.7341 95.6965L56.4981 117.321C56.0717 118.44 56.6337 119.693 57.7526 120.119C58.0064 120.216 58.2672 120.261 58.5238 120.261C59.3971 120.261 60.2206 119.729 60.5502 118.864L62.0695 114.875H72.3098L73.8129 118.858C74.2355 119.978 75.4869 120.544 76.6067 120.121C77.7268 119.698 78.2922 118.447 77.8693 117.327L69.7082 95.7017C69.7007 95.6817 69.6929 95.6621 69.6848 95.6427ZM63.7206 110.539L67.2128 101.37L70.6731 110.539H63.7206Z" fill="black"/>
        <path d="M110.457 115.891C109.219 115.891 108.031 115.397 107.281 114.569C106.477 113.681 105.106 113.614 104.218 114.418C103.331 115.222 103.264 116.593 104.068 117.48C105.65 119.226 107.978 120.227 110.457 120.227C113.57 120.227 116.186 118.225 116.679 115.465C117.053 113.371 116.125 110.644 112.4 109.27C110.794 108.677 109.293 108.034 108.752 107.798C108.611 107.659 108.598 107.485 108.617 107.354C108.664 107.024 108.947 106.757 109.392 106.623C111.083 106.114 112.697 107.369 112.754 107.415C113.671 108.172 115.028 108.05 115.794 107.138C116.564 106.221 116.446 104.854 115.53 104.083C114.281 103.034 111.32 101.514 108.141 102.472C106.076 103.094 104.614 104.729 104.325 106.738C104.053 108.635 104.875 110.459 106.472 111.5C106.568 111.563 106.668 111.617 106.773 111.664C106.853 111.7 108.756 112.547 110.899 113.337C111.695 113.631 112.51 114.144 112.411 114.703C112.325 115.182 111.645 115.891 110.457 115.891Z" fill="black"/>
        <path d="M94.7405 118.8C95.0434 119.632 95.8389 120.227 96.7761 120.227C97.9737 120.227 98.944 119.256 98.944 118.059V97.4404C98.944 96.2431 97.9737 95.2724 96.7761 95.2724C95.5785 95.2724 94.6081 96.2431 94.6081 97.4404V103.406C93.2261 102.555 91.6007 102.064 89.8623 102.064C84.8546 102.064 80.7805 106.138 80.7805 111.145C80.7805 116.153 84.8546 120.227 89.8623 120.227C91.6571 120.227 93.3305 119.702 94.7405 118.8ZM85.1165 111.145C85.1165 108.529 87.2454 106.4 89.8623 106.4C92.4792 106.4 94.6081 108.529 94.6081 111.145C94.6081 113.762 92.4792 115.891 89.8623 115.891C87.2454 115.891 85.1165 113.762 85.1165 111.145Z" fill="black"/>
        <path d="M123.932 89.9147L125.083 91.0657C125.506 91.4892 126.061 91.7008 126.616 91.7008C127.171 91.7008 127.726 91.4892 128.149 91.0657C128.996 90.219 128.996 88.8466 128.149 87.9999L126.998 86.8486L128.149 85.6972C128.996 84.8506 128.996 83.4778 128.149 82.6312C127.303 81.7845 125.93 81.7848 125.083 82.6312L123.932 83.7822L122.781 82.6312C121.934 81.7845 120.562 81.7845 119.715 82.6312C118.868 83.4778 118.868 84.8506 119.715 85.6969L120.866 86.8483L119.715 87.9993C118.868 88.846 118.868 90.2185 119.715 91.0651C120.139 91.4886 120.693 91.7002 121.248 91.7002C121.803 91.7002 122.358 91.4886 122.781 91.0651L123.932 89.9147Z" fill="black"/>
        <path d="M117.508 42.3407H30.4917C29.2941 42.3407 28.3237 43.3114 28.3237 44.5087V53.8526C28.3237 55.0499 29.2941 56.0206 30.4917 56.0206H117.508C118.705 56.0206 119.676 55.0499 119.676 53.8526V44.5087C119.676 43.3114 118.705 42.3407 117.508 42.3407ZM115.34 51.6846H32.6597V46.6766H115.34V51.6846H115.34Z" fill="black"/>
        <path d="M9.34399 76.6287C9.34399 77.826 10.3144 78.7967 11.512 78.7967H87.4322C88.6298 78.7967 89.6002 77.826 89.6002 76.6287C89.6002 75.4314 88.6298 74.4608 87.4322 74.4608H11.512C10.3147 74.4608 9.34399 75.4314 9.34399 76.6287Z" fill="black"/>
        <path d="M31.9519 65.1168C30.7543 65.1168 29.7839 66.0875 29.7839 67.2848C29.7839 68.4821 30.7543 69.4528 31.9519 69.4528H87.4322C88.6298 69.4528 89.6002 68.4821 89.6002 67.2848C89.6002 66.0875 88.6298 65.1168 87.4322 65.1168H31.9519Z" fill="black"/>
        <path d="M11.512 88.1406H39.8358C41.0333 88.1406 42.0037 87.17 42.0037 85.9727C42.0037 84.7754 41.0333 83.8047 39.8358 83.8047H11.512C10.3144 83.8047 9.34399 84.7754 9.34399 85.9727C9.34399 87.17 10.3147 88.1406 11.512 88.1406Z" fill="black"/>
        <path d="M11.512 97.4846H39.8358C41.0333 97.4846 42.0037 96.5139 42.0037 95.3166C42.0037 94.1193 41.0333 93.1486 39.8358 93.1486H11.512C10.3144 93.1486 9.34399 94.1193 9.34399 95.3166C9.34399 96.5139 10.3147 97.4846 11.512 97.4846Z" fill="black"/>
        <path d="M11.512 106.829H25.2361C26.4337 106.829 27.404 105.858 27.404 104.661C27.404 103.463 26.4337 102.493 25.2361 102.493H11.512C10.3144 102.493 9.34399 103.463 9.34399 104.661C9.34399 105.858 10.3147 106.829 11.512 106.829Z" fill="black"/>
    </g>
    <defs>
        <clipPath id="clip0">
            <rect width="148" height="148" fill="white"/>
        </clipPath>
    </defs>
</svg>
