<svg width="151" height="151" viewBox="0 0 151 151" fill="none" xmlns="http://www.w3.org/2000/svg">
    <path d="M148.788 17.5688H71.9872C70.7653 17.5688 69.7753 18.5591 69.7753 19.7807C69.7753 21.0023 70.7653 21.9926 71.9872 21.9926H146.576V38.7807H4.42383V21.9926H61.9073C63.1292 21.9926 64.1193 21.0023 64.1193 19.7807C64.1193 18.5591 63.1292 17.5688 61.9073 17.5688H2.21191C0.990053 17.5688 0 18.5591 0 19.7807V131.219C0 132.441 0.990053 133.431 2.21191 133.431H94.3488C95.5706 133.431 96.5607 132.441 96.5607 131.219C96.5607 129.997 95.5706 129.007 94.3488 129.007H4.42383V120.771H146.576V129.007H104.429C103.207 129.007 102.217 129.997 102.217 131.219C102.217 132.441 103.207 133.431 104.429 133.431H148.788C150.01 133.431 151 132.441 151 131.219V19.7807C151 18.5594 150.01 17.5688 148.788 17.5688ZM146.576 116.348H4.42383V43.2046H146.576V116.348Z" fill="black"/>
    <path d="M15.1531 28.175H15.1218C13.9 28.175 12.9099 29.1654 12.9099 30.387C12.9099 31.6085 13.9 32.5989 15.1218 32.5989H15.1531C16.375 32.5989 17.365 31.6085 17.365 30.387C17.365 29.1651 16.375 28.175 15.1531 28.175Z" fill="black"/>
    <path d="M23.3587 28.175H23.3274C22.1055 28.175 21.1155 29.1654 21.1155 30.387C21.1155 31.6085 22.1055 32.5989 23.3274 32.5989H23.3587C24.5805 32.5989 25.5706 31.6085 25.5706 30.387C25.5706 29.1651 24.5805 28.175 23.3587 28.175Z" fill="black"/>
    <path d="M31.564 28.175H31.5327C30.3109 28.175 29.3208 29.1654 29.3208 30.387C29.3208 31.6085 30.3109 32.5989 31.5327 32.5989H31.564C32.7858 32.5989 33.7759 31.6085 33.7759 30.387C33.7759 29.1651 32.7858 28.175 31.564 28.175Z" fill="black"/>
    <path d="M137.045 28.175H112.388C111.166 28.175 110.176 29.1654 110.176 30.387C110.176 31.6085 111.166 32.5989 112.388 32.5989H137.045C138.267 32.5989 139.257 31.6085 139.257 30.387C139.257 29.1651 138.267 28.175 137.045 28.175Z" fill="black"/>
    <path d="M104.47 28.175H99.0415C97.8196 28.175 96.8296 29.1654 96.8296 30.387C96.8296 31.6085 97.8196 32.5989 99.0415 32.5989H104.47C105.692 32.5989 106.682 31.6085 106.682 30.387C106.682 29.1651 105.692 28.175 104.47 28.175Z" fill="black"/>
    <path d="M127.045 72.6195H116.815C115.593 72.6195 114.603 73.6099 114.603 74.8314C114.603 76.053 115.593 77.0433 116.815 77.0433H124.833V92.6291H28.8118V77.0433H106.735C107.957 77.0433 108.947 76.053 108.947 74.8314C108.947 73.6099 107.957 72.6195 106.735 72.6195H26.5999C25.378 72.6195 24.3879 73.6099 24.3879 74.8314V94.841C24.3879 96.0625 25.378 97.0529 26.5999 97.0529H127.045C128.267 97.0529 129.257 96.0625 129.257 94.841V74.8314C129.257 73.6101 128.267 72.6195 127.045 72.6195Z" fill="black"/>
    <path d="M44.328 80.4562C43.3377 79.4658 42.0211 78.9205 40.6205 78.9205C39.22 78.9205 37.9034 79.4658 36.9131 80.4562C35.4284 81.9411 35.0276 84.1011 35.7001 85.9559L34.457 87.199C33.5928 88.0628 33.5928 89.4634 34.4567 90.3272C34.8887 90.759 35.455 90.9752 36.0209 90.9752C36.5869 90.9752 37.1531 90.7593 37.5852 90.3272L38.8259 89.0865C39.394 89.2932 39.998 89.4068 40.6205 89.4068C42.0211 89.4068 43.3377 88.8615 44.328 87.8711C46.3721 85.827 46.3721 82.5009 44.328 80.4562ZM41.1998 84.7432C40.9913 84.952 40.7474 84.9829 40.6205 84.9829C40.4937 84.9829 40.2498 84.952 40.0413 84.7432C39.7219 84.4235 39.7219 83.9038 40.0413 83.5844C40.2498 83.3756 40.4937 83.3447 40.6205 83.3447C40.7474 83.3447 40.9913 83.3756 41.1998 83.5844C41.5192 83.9038 41.5192 84.4238 41.1998 84.7432Z" fill="black"/>
    <path d="M70.5819 100.857H46.5293C45.3074 100.857 44.3174 101.847 44.3174 103.069C44.3174 104.291 45.3074 105.281 46.5293 105.281H70.5819C71.8038 105.281 72.7939 104.291 72.7939 103.069C72.7939 101.847 71.8038 100.857 70.5819 100.857Z" fill="black"/>
    <path d="M104.47 100.857H80.4177C79.1959 100.857 78.2058 101.847 78.2058 103.069C78.2058 104.291 79.1959 105.281 80.4177 105.281H104.47C105.692 105.281 106.682 104.291 106.682 103.069C106.682 101.847 105.692 100.857 104.47 100.857Z" fill="black"/>
    <path d="M96.6536 53.5286H54.3462C53.1243 53.5286 52.1343 54.519 52.1343 55.7405V66.0628C52.1343 67.2844 53.1246 68.2747 54.3462 68.2747H96.6536C97.8755 68.2747 98.8655 67.2844 98.8655 66.0628V55.7405C98.8655 54.5187 97.8755 53.5286 96.6536 53.5286ZM94.4417 63.8509H56.5581V57.9525H94.4417V63.8509Z" fill="black"/>
</svg>
