<svg width="139" height="139" viewBox="0 0 139 139" fill="none" xmlns="http://www.w3.org/2000/svg">
    <path d="M43.6587 9.24854H125.263V13.3288H43.6587V9.24854Z" fill="black"/>
    <path d="M4.08024 22.5773H29.5137V18.4971H4.08024V4.08023H64.5648V0H0V91.8442H4.08024V22.5773Z" fill="black"/>
    <path d="M4.08024 119.007V95.9244H0V119.007C0 124.632 4.57585 129.207 10.2006 129.207H99.4217V125.127H10.2006C6.82569 125.127 4.08024 122.381 4.08024 119.007Z" fill="black"/>
    <path d="M68.6449 0V4.08024H134.92V18.4971H33.5938V22.5773H134.92V58.8525H139V0H68.6449Z" fill="black"/>
    <path d="M134.92 62.9327H139V87.9971H134.92V62.9327Z" fill="black"/>
    <path d="M128.799 91.3973H115.199C109.574 91.3973 104.998 95.9731 104.998 101.598V128.799C104.998 134.424 109.574 139 115.199 139H128.799C134.424 139 139 134.424 139 128.799V124.331H134.92V128.799C134.92 132.174 132.174 134.92 128.799 134.92H115.199C111.824 134.92 109.078 132.174 109.078 128.799V111.798H134.92V120.251H139V101.598C139 95.9731 134.424 91.3973 128.799 91.3973ZM119.959 107.718H109.078V101.598C109.078 98.2232 111.824 95.4775 115.199 95.4775H119.959V107.718ZM134.92 107.718H124.039V95.4775H128.799C132.174 95.4775 134.92 98.2232 134.92 101.598V107.718Z" fill="black"/>
    <path d="M110.982 66.5462V38.7622C110.982 36.2874 112.996 34.274 115.47 34.274C117.945 34.274 119.959 36.2874 119.959 38.7622V78.4765H124.039V38.7622C124.039 34.0376 120.195 30.1937 115.47 30.1937C110.746 30.1937 106.902 34.0376 106.902 38.7622V66.5462C106.902 68.4212 105.377 69.9464 103.502 69.9464H90.531C89.4843 48.749 71.911 31.8258 50.4587 31.8258C28.3352 31.8258 10.3364 49.8246 10.3364 71.9481C10.3364 94.0717 28.3352 112.07 50.4587 112.07C71.8854 112.07 89.4427 95.1881 90.5277 74.0266H103.502C107.626 74.0266 110.982 70.6707 110.982 66.5462ZM39.3627 37.6562C35.2773 42.3844 32.1477 49.6943 30.5521 58.4834H17.028C21.0043 48.6462 29.2013 40.9519 39.3627 37.6562ZM14.4167 71.9481C14.4167 68.7027 14.8505 65.5571 15.6584 62.5636H29.9354C29.5709 65.5653 29.3775 68.7057 29.3775 71.9481C29.3775 75.1906 29.5709 78.331 29.9354 81.3327H15.6584C14.8505 78.3391 14.4167 75.1936 14.4167 71.9481ZM17.028 85.4129H30.5521C32.1477 94.202 35.2773 101.512 39.3627 106.24C29.2013 102.944 21.0043 95.2501 17.028 85.4129ZM48.4186 107.717C42.2936 106.083 37.0587 97.2165 34.7379 85.4129H48.4186V107.717ZM48.4186 81.3327H34.0692C33.6718 78.3277 33.4578 75.18 33.4578 71.9481C33.4578 68.7163 33.6721 65.5686 34.0692 62.5636H48.4186V81.3327ZM48.4186 58.4834H34.7379C37.0587 46.6795 42.2936 37.8137 48.4186 36.1792V58.4834ZM83.8895 58.4834H70.3654C68.7697 49.6943 65.6402 42.3844 61.5548 37.6562C71.7162 40.9519 79.9131 48.6462 83.8895 58.4834ZM52.4989 36.1792C58.6238 37.8137 63.8588 46.6798 66.1796 58.4834H52.4989V36.1792ZM52.4989 62.5636H66.8482C67.2456 65.5686 67.4597 68.7163 67.4597 71.9481C67.4597 75.18 67.2454 78.3277 66.8482 81.3327H52.4989V62.5636ZM52.4989 107.717V85.4129H66.1796C63.8588 97.2168 58.6238 106.083 52.4989 107.717ZM61.5548 106.24C65.6402 101.512 68.7697 94.202 70.3654 85.4129H83.8895C79.9131 95.2501 71.7162 102.944 61.5548 106.24ZM85.2591 81.3327H70.982C71.3465 78.331 71.54 75.1906 71.54 71.9481C71.54 68.7057 71.3465 65.5653 70.982 62.5636H85.2591C86.0672 65.5571 86.5008 68.7027 86.5008 71.9481C86.5008 75.1936 86.0669 78.3391 85.2591 81.3327Z" fill="black"/>
    <path d="M19.9932 9.24854H24.0734V13.3288H19.9932V9.24854Z" fill="black"/>
    <path d="M11.8325 9.24854H15.9128V13.3288H11.8325V9.24854Z" fill="black"/>
    <path d="M28.1538 9.24854H32.234V13.3288H28.1538V9.24854Z" fill="black"/>
    <path d="M56.5791 116.967H60.6593V121.047H56.5791V116.967Z" fill="black"/>
    <path d="M48.4189 116.967H52.4992V121.047H48.4189V116.967Z" fill="black"/>
    <path d="M40.2583 116.967H44.3385V121.047H40.2583V116.967Z" fill="black"/>
    <path d="M119.959 83.1008H124.039V87.181H119.959V83.1008Z" fill="black"/>
</svg>
